<svg width="322" height="322" viewBox="0 0 322 322" fill="none" xmlns="http://www.w3.org/2000/svg">
<path d="M160.63 321.26C249.343 321.26 321.26 249.343 321.26 160.63C321.26 71.9165 249.343 1.52588e-05 160.63 1.52588e-05C71.9165 1.52588e-05 3.8147e-06 71.9165 3.8147e-06 160.63C3.8147e-06 249.343 71.9165 321.26 160.63 321.26Z" fill="#1A1A1A"/>
<path d="M160.291 302.088C238.567 302.088 302.023 238.632 302.023 160.356C302.023 82.0791 238.567 18.6234 160.291 18.6234C82.0143 18.6234 18.5586 82.0791 18.5586 160.356C18.5586 238.632 82.0143 302.088 160.291 302.088Z" fill="#009D9D"/>
<path d="M224.93 66.447C207.067 66.8922 188.279 71.6449 169.969 80.3502C151.659 89.0555 134.301 101.488 119.19 116.72C96.3719 139.746 79.8146 168.013 72.2526 196.852C64.6905 225.692 66.576 253.379 77.5978 275.34C101.802 293.027 130.991 302.583 160.969 302.636C179.581 302.636 198.012 298.97 215.208 291.848C232.403 284.725 248.028 274.285 261.189 261.124C274.35 247.963 284.79 232.338 291.913 215.143C299.035 197.947 302.701 179.517 302.701 160.904C302.645 132.148 293.843 104.09 277.465 80.4548C262.787 70.7732 244.726 65.9575 224.93 66.447V66.447Z" fill="#008F8F"/>
<path d="M140.738 117.94C161.612 117.94 178.534 101.019 178.534 80.1449C178.534 59.2712 161.612 42.3496 140.738 42.3496C119.865 42.3496 102.943 59.2712 102.943 80.1449C102.943 101.019 119.865 117.94 140.738 117.94Z" fill="white"/>
<path d="M214.552 75.7355C222.901 75.7355 229.67 68.9669 229.67 60.6174C229.67 52.2679 222.901 45.4993 214.552 45.4993C206.202 45.4993 199.434 52.2679 199.434 60.6174C199.434 68.9669 206.202 75.7355 214.552 75.7355Z" fill="white"/>
</svg>
